<svg width="24" height="24" viewBox="0 0 24 24" fill="none" xmlns="http://www.w3.org/2000/svg">
<g clip-path="url(#clip0_2965_1196)">
<path d="M6 4.5H18C18.3283 4.5 18.6534 4.56466 18.9567 4.6903C19.26 4.81594 19.5356 5.00009 19.7678 5.23223C19.9999 5.46438 20.1841 5.73998 20.3097 6.04329C20.4353 6.34661 20.5 6.6717 20.5 7V19C20.5 19.3283 20.4353 19.6534 20.3097 19.9567C20.1841 20.26 19.9999 20.5356 19.7678 20.7678C19.5356 20.9999 19.26 21.1841 18.9567 21.3097C18.6534 21.4353 18.3283 21.5 18 21.5H6C5.33696 21.5 4.70107 21.2366 4.23223 20.7678C3.76339 20.2989 3.5 19.663 3.5 19V7C3.5 6.33696 3.76339 5.70107 4.23223 5.23223C4.70107 4.76339 5.33696 4.5 6 4.5ZM18 20.5C18.3978 20.5 18.7794 20.342 19.0607 20.0607C19.342 19.7794 19.5 19.3978 19.5 19V7C19.5 6.60218 19.342 6.22064 19.0607 5.93934C18.7794 5.65804 18.3978 5.5 18 5.5H6C5.60218 5.5 5.22064 5.65804 4.93934 5.93934C4.65804 6.22064 4.5 6.60218 4.5 7V19C4.5 19.3978 4.65804 19.7794 4.93934 20.0607C5.22064 20.342 5.60218 20.5 6 20.5H18Z" fill="black"/>
<path d="M16 7.5C15.8674 7.5 15.7402 7.44732 15.6464 7.35355C15.5527 7.25979 15.5 7.13261 15.5 7V3C15.5 2.86739 15.5527 2.74021 15.6464 2.64645C15.7402 2.55268 15.8674 2.5 16 2.5C16.1326 2.5 16.2598 2.55268 16.3536 2.64645C16.4473 2.74021 16.5 2.86739 16.5 3V7C16.5 7.13261 16.4473 7.25979 16.3536 7.35355C16.2598 7.44732 16.1326 7.5 16 7.5Z" fill="black"/>
<path d="M8 7.5C7.86739 7.5 7.74021 7.44732 7.64645 7.35355C7.55268 7.25979 7.5 7.13261 7.5 7V3C7.5 2.86739 7.55268 2.74021 7.64645 2.64645C7.74021 2.55268 7.86739 2.5 8 2.5C8.13261 2.5 8.25979 2.55268 8.35355 2.64645C8.44732 2.74021 8.5 2.86739 8.5 3V7C8.5 7.13261 8.44732 7.25979 8.35355 7.35355C8.25979 7.44732 8.13261 7.5 8 7.5Z" fill="black"/>
<path d="M20 11.5H4C3.86739 11.5 3.74021 11.4473 3.64645 11.3536C3.55268 11.2598 3.5 11.1326 3.5 11C3.5 10.8674 3.55268 10.7402 3.64645 10.6464C3.74021 10.5527 3.86739 10.5 4 10.5H20C20.1326 10.5 20.2598 10.5527 20.3536 10.6464C20.4473 10.7402 20.5 10.8674 20.5 11C20.5 11.1326 20.4473 11.2598 20.3536 11.3536C20.2598 11.4473 20.1326 11.5 20 11.5Z" fill="black"/>
<path d="M8 14.5H10C10.1326 14.5 10.2598 14.5527 10.3536 14.6464C10.4473 14.7402 10.5 14.8674 10.5 15V17C10.5 17.1326 10.4473 17.2598 10.3536 17.3536C10.2598 17.4473 10.1326 17.5 10 17.5H8C7.86739 17.5 7.74021 17.4473 7.64645 17.3536C7.55268 17.2598 7.5 17.1326 7.5 17V15C7.5 14.8674 7.55268 14.7402 7.64645 14.6464C7.74021 14.5527 7.86739 14.5 8 14.5ZM9.5 15.5H8.5V16.5H9.5V15.5Z" fill="black"/>
</g>
<defs>
<clipPath id="clip0_2965_1196">
<rect width="24" height="24" fill="white"/>
</clipPath>
</defs>
</svg>
