<svg width="16" height="16" viewBox="0 0 16 16" fill="none" xmlns="http://www.w3.org/2000/svg">
<mask id="path-1-inside-1_2941_5272" fill="white">
<path d="M6.41667 0C5.82726 0 5.25911 0.0759549 4.71224 0.227865C4.16536 0.379774 3.65495 0.595486 3.18099 0.875C2.70703 1.15451 2.27561 1.48872 1.88672 1.8776C1.49783 2.26649 1.16059 2.70095 0.875 3.18099C0.589409 3.66102 0.373697 4.17144 0.227864 4.71224C0.0820312 5.25304 0.00607586 5.82118 0 6.41667C0 7.00608 0.0759544 7.57422 0.227864 8.12109C0.379774 8.66797 0.595486 9.17839 0.875 9.65234C1.15451 10.1263 1.48872 10.5577 1.8776 10.9466C2.26649 11.3355 2.70095 11.6727 3.18099 11.9583C3.66102 12.2439 4.17144 12.4596 4.71224 12.6055C5.25304 12.7513 5.82118 12.8273 6.41667 12.8333C7.17622 12.8333 7.90234 12.7057 8.59505 12.4505C9.28776 12.1953 9.92882 11.8277 10.5182 11.3477L15.0065 15.8268C15.122 15.9423 15.2587 16 15.4167 16C15.5747 16 15.7114 15.9423 15.8268 15.8268C15.9423 15.7114 16 15.5747 16 15.4167C16 15.2587 15.9423 15.122 15.8268 15.0065L11.3477 10.5182C11.8277 9.9349 12.1953 9.29688 12.4505 8.60417C12.7057 7.91146 12.8333 7.18229 12.8333 6.41667C12.8333 5.82726 12.7574 5.25911 12.6055 4.71224C12.4536 4.16536 12.2378 3.65495 11.9583 3.18099C11.6788 2.70703 11.3446 2.27561 10.9557 1.88672C10.5668 1.49783 10.1324 1.16059 9.65234 0.875C9.17231 0.58941 8.66189 0.373698 8.12109 0.227865C7.58029 0.0820312 7.01215 0.00607639 6.41667 0ZM6.41667 11.6667C5.69358 11.6667 5.01302 11.5299 4.375 11.2565C3.73698 10.9831 3.18099 10.6063 2.70703 10.1263C2.23307 9.64627 1.85938 9.09028 1.58594 8.45833C1.3125 7.82639 1.17274 7.14583 1.16667 6.41667C1.16667 5.69358 1.30338 5.01302 1.57682 4.375C1.85026 3.73698 2.227 3.18099 2.70703 2.70703C3.18707 2.23307 3.74306 1.85938 4.375 1.58594C5.00694 1.3125 5.6875 1.17274 6.41667 1.16667C7.13976 1.16667 7.82031 1.30339 8.45833 1.57682C9.09635 1.85026 9.65234 2.227 10.1263 2.70703C10.6003 3.18707 10.974 3.74306 11.2474 4.375C11.5208 5.00694 11.6606 5.6875 11.6667 6.41667C11.6667 7.13976 11.5299 7.82031 11.2565 8.45833C10.9831 9.09635 10.6063 9.65234 10.1263 10.1263C9.64627 10.6003 9.09028 10.974 8.45833 11.2474C7.82639 11.5208 7.14583 11.6606 6.41667 11.6667Z"/>
</mask>
<path d="M6.41667 0C5.82726 0 5.25911 0.0759549 4.71224 0.227865C4.16536 0.379774 3.65495 0.595486 3.18099 0.875C2.70703 1.15451 2.27561 1.48872 1.88672 1.8776C1.49783 2.26649 1.16059 2.70095 0.875 3.18099C0.589409 3.66102 0.373697 4.17144 0.227864 4.71224C0.0820312 5.25304 0.00607586 5.82118 0 6.41667C0 7.00608 0.0759544 7.57422 0.227864 8.12109C0.379774 8.66797 0.595486 9.17839 0.875 9.65234C1.15451 10.1263 1.48872 10.5577 1.8776 10.9466C2.26649 11.3355 2.70095 11.6727 3.18099 11.9583C3.66102 12.2439 4.17144 12.4596 4.71224 12.6055C5.25304 12.7513 5.82118 12.8273 6.41667 12.8333C7.17622 12.8333 7.90234 12.7057 8.59505 12.4505C9.28776 12.1953 9.92882 11.8277 10.5182 11.3477L15.0065 15.8268C15.122 15.9423 15.2587 16 15.4167 16C15.5747 16 15.7114 15.9423 15.8268 15.8268C15.9423 15.7114 16 15.5747 16 15.4167C16 15.2587 15.9423 15.122 15.8268 15.0065L11.3477 10.5182C11.8277 9.9349 12.1953 9.29688 12.4505 8.60417C12.7057 7.91146 12.8333 7.18229 12.8333 6.41667C12.8333 5.82726 12.7574 5.25911 12.6055 4.71224C12.4536 4.16536 12.2378 3.65495 11.9583 3.18099C11.6788 2.70703 11.3446 2.27561 10.9557 1.88672C10.5668 1.49783 10.1324 1.16059 9.65234 0.875C9.17231 0.58941 8.66189 0.373698 8.12109 0.227865C7.58029 0.0820312 7.01215 0.00607639 6.41667 0ZM6.41667 11.6667C5.69358 11.6667 5.01302 11.5299 4.375 11.2565C3.73698 10.9831 3.18099 10.6063 2.70703 10.1263C2.23307 9.64627 1.85938 9.09028 1.58594 8.45833C1.3125 7.82639 1.17274 7.14583 1.16667 6.41667C1.16667 5.69358 1.30338 5.01302 1.57682 4.375C1.85026 3.73698 2.227 3.18099 2.70703 2.70703C3.18707 2.23307 3.74306 1.85938 4.375 1.58594C5.00694 1.3125 5.6875 1.17274 6.41667 1.16667C7.13976 1.16667 7.82031 1.30339 8.45833 1.57682C9.09635 1.85026 9.65234 2.227 10.1263 2.70703C10.6003 3.18707 10.974 3.74306 11.2474 4.375C11.5208 5.00694 11.6606 5.6875 11.6667 6.41667C11.6667 7.13976 11.5299 7.82031 11.2565 8.45833C10.9831 9.09635 10.6063 9.65234 10.1263 10.1263C9.64627 10.6003 9.09028 10.974 8.45833 11.2474C7.82639 11.5208 7.14583 11.6606 6.41667 11.6667Z" fill="black"/>
<path d="M6.41667 0V-2H6.42687L6.43707 -1.9999L6.41667 0ZM0 6.41667H-2V6.40646L-1.9999 6.39626L0 6.41667ZM6.41667 12.8333V14.8333H6.40646L6.39626 14.8332L6.41667 12.8333ZM10.5182 11.3477L9.25524 9.7969L10.6541 8.65765L11.931 9.93201L10.5182 11.3477ZM15.0065 15.8268L16.4193 14.4112L16.4207 14.4126L15.0065 15.8268ZM15.8268 15.0065L14.4126 16.4207L14.4112 16.4193L15.8268 15.0065ZM11.3477 10.5182L9.93201 11.931L8.65113 10.6475L9.80333 9.24738L11.3477 10.5182ZM6.41667 11.6667L6.43333 13.6666L6.425 13.6667H6.41667V11.6667ZM1.16667 6.41667L-0.833263 6.43333L-0.833334 6.425V6.41667H1.16667ZM6.41667 1.16667L6.4 -0.833264L6.40833 -0.833333H6.41667V1.16667ZM11.6667 6.41667L13.6666 6.4L13.6667 6.40833V6.41667H11.6667ZM6.41667 0V2C6.00118 2 5.61349 2.05324 5.24753 2.1549L4.71224 0.227865L4.17695 -1.69917C4.90474 -1.90133 5.65333 -2 6.41667 -2V0ZM4.71224 0.227865L5.24753 2.1549C4.86378 2.2615 4.51561 2.40981 4.19696 2.59773L3.18099 0.875L2.16502 -0.847732C2.79428 -1.21884 3.46694 -1.50195 4.17695 -1.69917L4.71224 0.227865ZM3.18099 0.875L4.19696 2.59773C3.86815 2.79165 3.57055 3.0222 3.30093 3.29182L1.88672 1.8776L0.472505 0.463391C0.980666 -0.0447708 1.54591 -0.482617 2.16502 -0.847732L3.18099 0.875ZM1.88672 1.8776L3.30093 3.29182C3.03127 3.56148 2.79585 3.86397 2.59381 4.20357L0.875 3.18099L-0.843813 2.1584C-0.474674 1.53794 -0.0356121 0.971508 0.472505 0.463391L1.88672 1.8776ZM0.875 3.18099L2.59381 4.20357C2.40178 4.52635 2.25734 4.86785 2.15889 5.23296L0.227864 4.71224L-1.70316 4.19151C-1.50995 3.47503 -1.22297 2.7957 -0.843813 2.1584L0.875 3.18099ZM0.227864 4.71224L2.15889 5.23296C2.05975 5.60061 2.00436 5.99996 1.9999 6.43707L0 6.41667L-1.9999 6.39626C-1.9922 5.6424 -1.89569 4.90547 -1.70316 4.19151L0.227864 4.71224ZM0 6.41667H2C2 6.83215 2.05324 7.21984 2.1549 7.58581L0.227864 8.12109L-1.69917 8.65638C-1.90133 7.92859 -2 7.18 -2 6.41667H0ZM0.227864 8.12109L2.1549 7.58581C2.26149 7.96955 2.40981 8.31772 2.59773 8.63637L0.875 9.65234L-0.847733 10.6683C-1.21884 10.0391 -1.50195 9.36639 -1.69917 8.65638L0.227864 8.12109ZM0.875 9.65234L2.59773 8.63637C2.79164 8.96518 3.0222 9.26278 3.29182 9.5324L1.8776 10.9466L0.46339 12.3608C-0.0447712 11.8527 -0.482618 11.2874 -0.847733 10.6683L0.875 9.65234ZM1.8776 10.9466L3.29182 9.5324C3.56148 9.80206 3.86397 10.0375 4.20357 10.2395L3.18099 11.9583L2.1584 13.6771C1.53794 13.308 0.971508 12.8689 0.46339 12.3608L1.8776 10.9466ZM3.18099 11.9583L4.20357 10.2395C4.52635 10.4315 4.86785 10.576 5.23296 10.6744L4.71224 12.6055L4.19151 14.5365C3.47503 14.3433 2.7957 14.0563 2.1584 13.6771L3.18099 11.9583ZM4.71224 12.6055L5.23296 10.6744C5.60061 10.7736 5.99996 10.829 6.43707 10.8334L6.41667 12.8333L6.39626 14.8332C5.6424 14.8255 4.90547 14.729 4.19151 14.5365L4.71224 12.6055ZM6.41667 12.8333V10.8333C6.9472 10.8333 7.43873 10.7451 7.90364 10.5738L8.59505 12.4505L9.28646 14.3272C8.36595 14.6663 7.40523 14.8333 6.41667 14.8333V12.8333ZM8.59505 12.4505L7.90364 10.5738C8.38299 10.3972 8.8319 10.1417 9.25524 9.7969L10.5182 11.3477L11.7812 12.8984C11.0257 13.5137 10.1925 13.9934 9.28646 14.3272L8.59505 12.4505ZM10.5182 11.3477L11.931 9.93201L16.4193 14.4112L15.0065 15.8268L13.5937 17.2425L9.10545 12.7633L10.5182 11.3477ZM15.0065 15.8268L16.4207 14.4126C16.3143 14.3062 16.1657 14.1953 15.9736 14.1142C15.7801 14.0325 15.5874 14 15.4167 14V16V18C14.7087 18 14.0688 17.7175 13.5923 17.241L15.0065 15.8268ZM15.4167 16V14C15.2459 14 15.0532 14.0325 14.8598 14.1142C14.6676 14.1953 14.519 14.3062 14.4126 14.4126L15.8268 15.8268L17.241 17.241C16.7645 17.7175 16.1246 18 15.4167 18V16ZM15.8268 15.8268L14.4126 14.4126C14.3062 14.519 14.1953 14.6676 14.1142 14.8598C14.0325 15.0532 14 15.2459 14 15.4167H16H18C18 16.1246 17.7175 16.7645 17.241 17.241L15.8268 15.8268ZM16 15.4167H14C14 15.5874 14.0325 15.7801 14.1142 15.9736C14.1953 16.1657 14.3062 16.3143 14.4126 16.4207L15.8268 15.0065L17.241 13.5923C17.7175 14.0688 18 14.7087 18 15.4167H16ZM15.8268 15.0065L14.4112 16.4193L9.93201 11.931L11.3477 10.5182L12.7633 9.10545L17.2425 13.5937L15.8268 15.0065ZM11.3477 10.5182L9.80333 9.24738C10.1443 8.83309 10.398 8.39012 10.5738 7.91276L12.4505 8.60417L14.3272 9.29558C13.9927 10.2036 13.5111 11.0367 12.892 11.7891L11.3477 10.5182ZM12.4505 8.60417L10.5738 7.91276C10.7445 7.44962 10.8333 6.95523 10.8333 6.41667H12.8333H14.8333C14.8333 7.40935 14.667 8.37329 14.3272 9.29558L12.4505 8.60417ZM12.8333 6.41667H10.8333C10.8333 6.00118 10.7801 5.61349 10.6784 5.24753L12.6055 4.71224L14.5325 4.17695C14.7347 4.90474 14.8333 5.65334 14.8333 6.41667H12.8333ZM12.6055 4.71224L10.6784 5.24753C10.5718 4.86379 10.4235 4.51561 10.2356 4.19696L11.9583 3.18099L13.6811 2.16502C14.0522 2.79428 14.3353 3.46694 14.5325 4.17695L12.6055 4.71224ZM11.9583 3.18099L10.2356 4.19696C10.0417 3.86815 9.81113 3.57055 9.54152 3.30093L10.9557 1.88672L12.3699 0.472505C12.8781 0.980667 13.316 1.54591 13.6811 2.16502L11.9583 3.18099ZM10.9557 1.88672L9.54152 3.30093C9.27185 3.03127 8.96936 2.79586 8.62976 2.59381L9.65234 0.875L10.6749 -0.843813C11.2954 -0.474675 11.8618 -0.0356122 12.3699 0.472505L10.9557 1.88672ZM9.65234 0.875L8.62976 2.59381C8.30699 2.40178 7.96548 2.25734 7.60037 2.15889L8.12109 0.227865L8.64182 -1.70316C9.35831 -1.50995 10.0376 -1.22297 10.6749 -0.843813L9.65234 0.875ZM8.12109 0.227865L7.60037 2.15889C7.23273 2.05975 6.83337 2.00436 6.39626 1.9999L6.41667 0L6.43707 -1.9999C7.19093 -1.9922 7.92786 -1.89568 8.64182 -1.70316L8.12109 0.227865ZM6.41667 11.6667V13.6667C5.43425 13.6667 4.48452 13.4794 3.58716 13.0948L4.375 11.2565L5.16284 9.41822C5.54152 9.58051 5.9529 9.66667 6.41667 9.66667V11.6667ZM4.375 11.2565L3.58716 13.0948C2.71838 12.7225 1.94488 12.201 1.28384 11.5315L2.70703 10.1263L4.13022 8.72112C4.4171 9.01168 4.75558 9.24368 5.16284 9.41822L4.375 11.2565ZM2.70703 10.1263L1.28384 11.5315C0.632121 10.8714 0.120164 10.1071 -0.249603 9.25256L1.58594 8.45833L3.42148 7.66411C3.59859 8.07343 3.83402 8.42113 4.13022 8.72112L2.70703 10.1263ZM1.58594 8.45833L-0.249603 9.25256C-0.635489 8.36073 -0.825092 7.41404 -0.833263 6.43333L1.16667 6.41667L3.1666 6.4C3.17058 6.87763 3.26049 7.29204 3.42148 7.66411L1.58594 8.45833ZM1.16667 6.41667H-0.833334C-0.833334 5.43425 -0.646049 4.48452 -0.261467 3.58716L1.57682 4.375L3.41511 5.16284C3.25282 5.54152 3.16667 5.9529 3.16667 6.41667H1.16667ZM1.57682 4.375L-0.261467 3.58716C0.110869 2.71838 0.632338 1.94488 1.30185 1.28384L2.70703 2.70703L4.11221 4.13022C3.82165 4.4171 3.58965 4.75558 3.41511 5.16284L1.57682 4.375ZM2.70703 2.70703L1.30185 1.28384C1.96193 0.632122 2.7262 0.120164 3.58078 -0.249603L4.375 1.58594L5.16922 3.42148C4.75991 3.59859 4.4122 3.83402 4.11221 4.13022L2.70703 2.70703ZM4.375 1.58594L3.58078 -0.249603C4.4726 -0.635487 5.41929 -0.825091 6.4 -0.833264L6.41667 1.16667L6.43333 3.1666C5.95571 3.17058 5.54129 3.26049 5.16922 3.42148L4.375 1.58594ZM6.41667 1.16667V-0.833333C7.39908 -0.833333 8.34882 -0.646048 9.24617 -0.261467L8.45833 1.57682L7.67049 3.41511C7.29181 3.25282 6.88043 3.16667 6.41667 3.16667V1.16667ZM8.45833 1.57682L9.24617 -0.261467C10.115 0.110869 10.8885 0.632338 11.5495 1.30185L10.1263 2.70703L8.70311 4.11221C8.41623 3.82165 8.07775 3.58965 7.67049 3.41511L8.45833 1.57682ZM10.1263 2.70703L11.5495 1.30185C12.2012 1.96193 12.7132 2.7262 13.0829 3.58078L11.2474 4.375L9.41186 5.16922C9.23475 4.75991 8.99931 4.41221 8.70311 4.11221L10.1263 2.70703ZM11.2474 4.375L13.0829 3.58078C13.4688 4.4726 13.6584 5.41929 13.6666 6.4L11.6667 6.41667L9.66674 6.43333C9.66276 5.95571 9.57285 5.54129 9.41186 5.16922L11.2474 4.375ZM11.6667 6.41667H13.6667C13.6667 7.39908 13.4794 8.34882 13.0948 9.24617L11.2565 8.45833L9.41822 7.6705C9.58051 7.29181 9.66667 6.88043 9.66667 6.41667H11.6667ZM11.2565 8.45833L13.0948 9.24617C12.7225 10.115 12.201 10.8885 11.5315 11.5495L10.1263 10.1263L8.72112 8.70311C9.01168 8.41623 9.24368 8.07775 9.41822 7.6705L11.2565 8.45833ZM10.1263 10.1263L11.5315 11.5495C10.8714 12.2012 10.1071 12.7132 9.25256 13.0829L8.45833 11.2474L7.66411 9.41186C8.07343 9.23475 8.42113 8.99931 8.72112 8.70311L10.1263 10.1263ZM8.45833 11.2474L9.25256 13.0829C8.36073 13.4688 7.41404 13.6584 6.43333 13.6666L6.41667 11.6667L6.4 9.66674C6.87763 9.66276 7.29204 9.57285 7.66411 9.41186L8.45833 11.2474Z" fill="black" mask="url(#path-1-inside-1_2941_5272)"/>
</svg>
