<svg width="14" height="14" viewBox="0 0 14 14" fill="none" xmlns="http://www.w3.org/2000/svg">
<path d="M6.83535 1.22794C8.47342 -0.409263 11.1312 -0.409263 12.7706 1.22763C14.3678 2.82257 14.4088 5.38305 12.8934 7.02746L12.7617 7.16536L6.60518 13.3117L6.57958 13.3329C5.55731 14.2527 3.9804 14.2215 2.99579 13.2383C2.07299 12.3168 1.98755 10.8759 2.73948 9.85822C2.75581 9.82651 2.77558 9.79598 2.79881 9.76727L2.83628 9.72556L2.89708 9.66429L2.99579 9.56097L2.99782 9.563L8.19994 4.35546C8.38597 4.1692 8.67742 4.1519 8.88304 4.30382L8.94202 4.35447C9.12853 4.54024 9.14581 4.83129 8.99372 5.03661L8.943 5.09544L3.62971 10.4139C3.12764 11.0256 3.16254 11.9298 3.7344 12.5008C4.31442 13.0799 5.23766 13.1075 5.85037 12.5835L12.0298 6.41459C13.258 5.18673 13.258 3.19628 12.0285 1.9686C10.8375 0.779293 8.92949 0.742128 7.69363 1.85711L7.57624 1.9686L7.56742 1.9786L0.895728 8.64058C0.69082 8.8452 0.358597 8.8452 0.153681 8.64058C-0.0325968 8.45461 -0.0495345 8.16351 0.102875 7.9584L0.153681 7.89965L6.83416 1.22763L6.83535 1.22794Z" fill="#333333"/>
</svg>
