<svg width="24" height="24" viewBox="0 0 24 24" fill="none" xmlns="http://www.w3.org/2000/svg">
<g clip-path="url(#clip0_2964_878)">
<path d="M9.274 20.9531H6.285C5.71823 20.9889 5.16026 20.7995 4.73238 20.4261C4.3045 20.0527 4.0413 19.5255 4 18.9591V4.99512C4.04105 4.42856 4.30414 3.90111 4.73205 3.52751C5.15996 3.15391 5.71807 2.96437 6.285 3.00012L14 2.95312L19 7.96813V10.7881" stroke="black" stroke-linecap="round" stroke-linejoin="round"/>
<path d="M14 3V7C14 7.26522 14.1054 7.51957 14.2929 7.70711C14.4804 7.89464 14.7348 8 15 8H19" stroke="black" stroke-linecap="round" stroke-linejoin="round"/>
<path d="M19.5284 12.4716C18.8994 11.8428 17.8798 11.8428 17.251 12.4717L11.8735 17.8495C11.6906 18.0323 11.5621 18.2623 11.5022 18.5138L11.0092 20.5844C10.982 20.6984 11.016 20.8183 11.0989 20.9011C11.1817 20.984 11.3017 21.018 11.4157 20.9908L13.4862 20.4979C13.7379 20.4379 13.968 20.3094 14.1509 20.1265L19.5284 14.7487C20.1572 14.1199 20.1572 13.1004 19.5284 12.4716ZM17.7283 12.9489C18.0935 12.5836 18.6858 12.5836 19.0511 12.9489C19.4163 13.3141 19.4163 13.9062 19.0511 14.2714L18.65 14.6726L17.3273 13.35L17.7283 12.9489ZM16.85 13.8272L18.1727 15.1499L13.6735 19.6492C13.579 19.7438 13.46 19.8103 13.3299 19.8413L11.7929 20.2072L12.1588 18.6702C12.1898 18.5401 12.2563 18.4212 12.3508 18.3267L16.85 13.8272Z" fill="#212121"/>
</g>
<defs>
<clipPath id="clip0_2964_878">
<rect width="24" height="24" fill="white"/>
</clipPath>
</defs>
</svg>
