<svg width="19" height="19" viewBox="0 0 19 19" fill="none" xmlns="http://www.w3.org/2000/svg">
<path d="M14.023 9.04545C16.7717 9.04545 19 11.2738 19 14.0227C19 16.7715 16.7717 19 14.023 19C11.2742 19 9.04595 16.7715 9.04595 14.0227C9.04595 11.2738 11.2742 9.04545 14.023 9.04545ZM9.06604 10.8547C8.79756 11.274 8.58083 11.7296 8.42482 12.2124L2.03503 12.2127C1.66077 12.2127 1.35737 12.5161 1.35737 12.8904V13.4131C1.35737 13.8979 1.53031 14.3668 1.84508 14.7354C2.97922 16.0636 4.75817 16.7385 7.23613 16.7385C7.77582 16.7385 8.28248 16.7065 8.75656 16.6427C8.97845 17.0905 9.25671 17.5056 9.58139 17.8792C8.86153 18.0242 8.07887 18.0959 7.23613 18.0959C4.38936 18.0959 2.23023 17.2769 0.812865 15.6169C0.288224 15.0025 0 14.2211 0 13.4131V12.8904C0 11.7664 0.911112 10.8553 2.03503 10.8553L9.06604 10.8547ZM14.023 10.8553L13.9416 10.8626C13.7569 10.8961 13.6113 11.0418 13.5778 11.2265L13.5705 11.3078L13.5696 13.5702H11.3118L11.2304 13.5775C11.0457 13.6111 10.9001 13.7567 10.8665 13.9414L10.8593 14.0227L10.8665 14.104C10.9001 14.2887 11.0457 14.4344 11.2304 14.4679L11.3118 14.4752H13.5696L13.5705 16.7375L13.5778 16.8189C13.6113 17.0036 13.7569 17.1492 13.9416 17.1828L14.023 17.19L14.1042 17.1828C14.2889 17.1492 14.4346 17.0036 14.4681 16.8189L14.4754 16.7375L14.4745 14.4752H16.7412L16.8225 14.4679C17.0072 14.4344 17.1529 14.2887 17.1864 14.104L17.1937 14.0227L17.1864 13.9414C17.1529 13.7567 17.0072 13.6111 16.8225 13.5775L16.7412 13.5702H14.4745L14.4754 11.3078L14.4681 11.2265C14.4346 11.0418 14.2889 10.8961 14.1042 10.8626L14.023 10.8553ZM7.23613 0C9.73496 0 11.7607 2.02582 11.7607 4.5248C11.7607 7.02378 9.73496 9.04961 7.23613 9.04961C4.73725 9.04961 2.71153 7.02378 2.71153 4.5248C2.71153 2.02582 4.73725 0 7.23613 0ZM7.23613 1.35744C5.4869 1.35744 4.0689 2.77552 4.0689 4.5248C4.0689 6.27408 5.4869 7.69217 7.23613 7.69217C8.98533 7.69217 10.4033 6.27408 10.4033 4.5248C10.4033 2.77552 8.98533 1.35744 7.23613 1.35744Z" fill="#212121"/>
</svg>
